<svg xmlns="http://www.w3.org/2000/svg" viewBox="0 0 235.42 235.42"><defs><style>.cls-1{fill:#0f0602;stroke:#0f0602;stroke-width:5px;}.cls-1,.cls-9{stroke-miterlimit:10;}.cls-2{fill:#a67c52;}.cls-3{fill:#ccc;}.cls-4{font-size:28px;font-family:ChickenScratchAOE, ChickenScratch AOE;}.cls-4,.cls-9{fill:#df7a17;}.cls-5{letter-spacing:-0.12em;}.cls-6{letter-spacing:-0.04em;}.cls-7{letter-spacing:-0.2em;}.cls-8{letter-spacing:-0.04em;}.cls-9{stroke:#000;stroke-width:0.94px;}.cls-10{font-size:19.02px;fill:#999;font-family:FranklinGothic-MediumCond, Franklin Gothic Medium Cond;font-weight:500;}</style></defs><g id="Layer_2" data-name="Layer 2"><g id="Layer_1-2" data-name="Layer 1"><path class="cls-1" d="M232.92,117.71a114.61,114.61,0,0,1-15.71,58.11c-.83,1.44-1.71,2.86-2.62,4.26-.35.54-.71,1.09-1.07,1.62l-2.62,3.76A115.78,115.78,0,0,1,196.21,202c-.86.82-1.73,1.6-2.62,2.37l-1.07.92-2.62,2.17a112.68,112.68,0,0,1-14.69,10.08c-.87.5-1.74,1-2.62,1.47l-1.07.57L168.9,221A114,114,0,0,1,154.21,227l-2.62.83-1.07.32-2.62.74a111.72,111.72,0,0,1-14.69,3c-.87.12-1.74.23-2.62.32l-1.07.11c-.87.1-1.74.18-2.62.24-3,.25-6.1.37-9.19.37-1.84,0-3.68,0-5.5-.13l-2.62-.16c-.36,0-.71,0-1.07-.09-.88-.06-1.75-.13-2.62-.23a112.84,112.84,0,0,1-14.69-2.46l-2.62-.65-1.07-.29c-.88-.23-1.75-.47-2.62-.74a112.26,112.26,0,0,1-14.69-5.46c-.88-.4-1.75-.81-2.62-1.23L66.52,221c-.88-.43-1.76-.88-2.62-1.35a113.71,113.71,0,0,1-14.69-9.24c-.88-.65-1.76-1.32-2.62-2-.36-.28-.72-.57-1.07-.87-.88-.69-1.76-1.42-2.62-2.17a114.89,114.89,0,0,1-14.69-15.06c-.9-1.09-1.77-2.21-2.62-3.34-.36-.48-.72-1-1.07-1.45q-1.35-1.84-2.62-3.75a115.3,115.3,0,0,1,0-128Q23.18,51.8,24.52,50c.35-.49.71-1,1.07-1.45.85-1.13,1.72-2.25,2.62-3.34A114.89,114.89,0,0,1,42.9,30.1c.86-.75,1.74-1.48,2.62-2.17.35-.3.71-.59,1.07-.87l2.62-2A113.71,113.71,0,0,1,63.9,15.82c.86-.47,1.74-.92,2.62-1.34.35-.19.71-.37,1.07-.54l2.62-1.23A112.26,112.26,0,0,1,84.9,7.25c.87-.27,1.74-.51,2.62-.74l1.07-.29,2.62-.65A112.84,112.84,0,0,1,105.9,3.11c.87-.1,1.74-.17,2.62-.23.36,0,.71-.07,1.07-.09l2.62-.16c1.82-.09,3.66-.13,5.5-.13,3.09,0,6.16.12,9.19.37.88.06,1.75.14,2.62.24l1.07.11,2.62.32a111.72,111.72,0,0,1,14.69,3c.88.23,1.75.48,2.62.74l1.07.32,2.62.83a114,114,0,0,1,14.69,6.07c.88.43,1.76.88,2.62,1.34l1.07.57,2.62,1.47A112.68,112.68,0,0,1,189.9,27.93c.88.7,1.76,1.42,2.62,2.17l1.07.92c.89.77,1.76,1.55,2.62,2.37a115.22,115.22,0,0,1,18.38,22c.91,1.4,1.79,2.82,2.62,4.26A114.61,114.61,0,0,1,232.92,117.71Z"/><path d="M24.52,50V185.47q-1.35-1.84-2.62-3.75V53.7Q23.18,51.8,24.52,50Z"/><path d="M45.52,27.93V207.49c-.88-.69-1.76-1.42-2.62-2.17V30.1C43.76,29.35,44.64,28.62,45.52,27.93Z"/><path d="M66.52,14.48V221c-.88-.43-1.76-.88-2.62-1.35V15.82C64.76,15.35,65.64,14.9,66.52,14.48Z"/><path d="M87.52,6.51v222.4c-.88-.23-1.75-.47-2.62-.74V7.25C85.77,7,86.64,6.74,87.52,6.51Z"/><path d="M108.52,2.88V232.54c-.88-.06-1.75-.13-2.62-.23V3.11C106.77,3,107.64,2.94,108.52,2.88Z"/><path d="M129.52,3.11v229.2c-.87.1-1.74.18-2.62.24V2.87C127.78,2.93,128.65,3,129.52,3.11Z"/><path d="M150.52,7.25V228.17l-2.62.74V6.51C148.78,6.74,149.65,7,150.52,7.25Z"/><path d="M171.52,15.81v203.8L168.9,221V14.47C169.78,14.9,170.66,15.35,171.52,15.81Z"/><polygon points="192.52 30.1 192.52 43.14 192.52 192.28 192.52 205.32 189.9 207.49 189.9 194.81 189.9 40.61 189.9 27.93 192.52 30.1"/><polygon points="210.9 185.46 210.9 167.46 210.9 67.96 210.9 51.03 213.52 55.74 213.52 73.2 213.52 162.22 213.52 181.7 210.9 185.46"/><path class="cls-2" d="M223.49,123.93h0a2.31,2.31,0,0,1,1.19-3c2.24-1,4.47-2.06,6.71-3.19a2.5,2.5,0,0,1-1.16,3.25C228,122,225.8,123,223.49,123.93Z"/><path class="cls-2" d="M222.94,130.13a2.37,2.37,0,0,1,1.38-2.95q3.42-1.31,6.86-2.8a2.48,2.48,0,0,1-1.32,3.18c-1.15.46-2.29.91-3.43,1.34S224.1,129.74,222.94,130.13Z"/><path class="cls-2" d="M222,136.29a2.34,2.34,0,0,1,1.58-2.87c2.31-.73,4.64-1.53,7-2.4a2.47,2.47,0,0,1-1.48,3.11C226.8,134.92,224.37,135.63,222,136.29Z"/><path class="cls-2" d="M220.77,142.38h0a2.29,2.29,0,0,1,1.74-2.77c2.38-.59,4.72-1.26,7.1-2a2.43,2.43,0,0,1-1.64,3C225.55,141.29,223.15,141.86,220.77,142.38Z"/><path class="cls-2" d="M219.16,148.39a2.28,2.28,0,0,1,1.88-2.67c2.44-.44,4.82-1,7.22-1.56A2.58,2.58,0,0,1,228,146a2.39,2.39,0,0,1-1.53,1Q222.76,147.82,219.16,148.39Z"/><path class="cls-2" d="M217.2,154.29a2.28,2.28,0,0,1,2-2.56c2.42-.31,4.92-.66,7.32-1.12h0a2.43,2.43,0,0,1-2,2.79C222.05,153.76,219.63,154.06,217.2,154.29Z"/><path class="cls-2" d="M214.87,160.05a2.32,2.32,0,0,1,2.17-2.42c2.44-.17,4.9-.39,7.39-.68a2.49,2.49,0,0,1-2.21,2.65C219.77,159.82,217.34,160,214.87,160.05Z"/><path class="cls-2" d="M212.2,165.68a2.35,2.35,0,0,1,2.34-2.29q3.65,0,7.38-.26a2.47,2.47,0,0,1-2.33,2.54C217.16,165.76,214.64,165.73,212.2,165.68Z"/><path class="cls-2" d="M209.22,171.14h0a2.29,2.29,0,0,1,2.47-2.14c2.45.12,4.88.17,7.37.17a2.44,2.44,0,0,1-2.45,2.4C214.12,171.48,211.65,171.34,209.22,171.14Z"/><path class="cls-2" d="M205.94,176.42a2.27,2.27,0,0,1,2.56-2c2.46.29,4.91.48,7.37.61a2.57,2.57,0,0,1-.84,1.69,2.45,2.45,0,0,1-1.77.56Q209.54,176.93,205.94,176.42Z"/><path class="cls-2" d="M202.34,181.5a2.29,2.29,0,0,1,2.67-1.86c2.4.4,4.89.78,7.33,1.05a2.45,2.45,0,0,1-2.75,2.08C207.13,182.39,204.75,182,202.34,181.5Z"/><path class="cls-2" d="M198.43,186.34h0a2.28,2.28,0,0,1,1-1.4,2.31,2.31,0,0,1,1.74-.29q3.57.82,7.26,1.48a2.49,2.49,0,0,1-2.87,1.92c-1.21-.25-2.4-.52-3.59-.79S199.62,186.66,198.43,186.34Z"/><path class="cls-2" d="M194.26,191a2.32,2.32,0,0,1,2.9-1.51c2.33.68,4.71,1.3,7.13,1.88a2.46,2.46,0,0,1-2.95,1.76C199,192.45,196.57,191.72,194.26,191Z"/><path class="cls-2" d="M189.83,195.33a2.29,2.29,0,0,1,3-1.35c2.34.86,4.63,1.58,7,2.3a2.42,2.42,0,0,1-3,1.59Q193.23,196.67,189.83,195.33Z"/><path class="cls-2" d="M185.17,199.45a2.25,2.25,0,0,1,3-1.2c2.26,1,4.58,1.9,6.88,2.72a2.42,2.42,0,0,1-3.15,1.39Q188.47,201,185.17,199.45Z"/><path class="cls-2" d="M180.24,203.26a2.33,2.33,0,0,1,3.1-1c2.19,1.09,4.44,2.14,6.73,3.13a2.48,2.48,0,0,1-3.24,1.19C184.59,205.52,182.42,204.45,180.24,203.26Z"/><path class="cls-2" d="M175.11,206.78a2.34,2.34,0,0,1,3.17-.81c2.11,1.21,4.29,2.37,6.51,3.5a2.48,2.48,0,0,1-3.29,1C179.35,209.34,177.19,208.05,175.11,206.78Z"/><path class="cls-2" d="M169.79,210a2.28,2.28,0,0,1,3.21-.61c2.05,1.34,4.14,2.6,6.29,3.85h0a2.46,2.46,0,0,1-3.33.85C173.84,212.76,171.79,211.39,169.79,210Z"/><path class="cls-2" d="M164.29,212.91h0a2.28,2.28,0,0,1,3.23-.44c2,1.48,4,2.88,6.06,4.23h0a2.54,2.54,0,0,1-1.57,1,2.43,2.43,0,0,1-1.82-.4C168.17,215.89,166.2,214.41,164.29,212.91Z"/><path class="cls-2" d="M158.63,215.49a2.29,2.29,0,0,1,3.24-.27c1.88,1.56,3.84,3.15,5.81,4.6h0a2.43,2.43,0,0,1-3.42.41C162.32,218.68,160.46,217.13,158.63,215.49Z"/><path class="cls-2" d="M152.82,217.71a2.34,2.34,0,0,1,3.26-.06q2.67,2.5,5.53,4.94a2.49,2.49,0,0,1-3.45.2C156.33,221.15,154.55,219.47,152.82,217.71Z"/><path class="cls-2" d="M146.89,219.59a2.33,2.33,0,0,1,3.26.16q2.52,2.64,5.22,5.22a2.46,2.46,0,0,1-3.44,0C150.2,223.27,148.5,221.41,146.89,219.59Z"/><path class="cls-2" d="M140.86,221.12a2.29,2.29,0,0,1,3.25.36c1.58,1.88,3.2,3.69,4.89,5.51a2.44,2.44,0,0,1-3.43-.16Q143.13,224,140.86,221.12Z"/><path class="cls-2" d="M134.75,222.31a2.27,2.27,0,0,1,3.22.51c1.47,2,3,3.92,4.57,5.81a2.54,2.54,0,0,1-1.81.54,2.43,2.43,0,0,1-1.61-.92Q136.84,225.3,134.75,222.31Z"/><path class="cls-2" d="M128.59,223.14a2.26,2.26,0,0,1,3.18.68c1.34,2,2.75,4.13,4.21,6.08a2.41,2.41,0,0,1-3.39-.6Q130.49,226.23,128.59,223.14Z"/><path class="cls-2" d="M122.38,223.57a2.31,2.31,0,0,1,3.13.88c1.22,2.12,2.51,4.24,3.86,6.34A2.49,2.49,0,0,1,126,230C124.74,227.84,123.53,225.78,122.38,223.57Z"/><path class="cls-2" d="M116.15,223.65a2.35,2.35,0,0,1,3.08,1.07q1.65,3.27,3.48,6.54h0a2.48,2.48,0,0,1-3.3-1q-.85-1.64-1.68-3.27C117.19,225.88,116.66,224.76,116.15,223.65Z"/><path class="cls-2" d="M109.94,223.37a2.35,2.35,0,0,1,3,1.27c1,2.23,2,4.47,3.09,6.7a2.47,2.47,0,0,1-3.24-1.15C111.78,228,110.83,225.64,109.94,223.37Z"/><path class="cls-2" d="M103.75,222.74a2.3,2.3,0,0,1,2.93,1.46q1.25,3.42,2.7,6.85a2.46,2.46,0,0,1-3.17-1.32Q104.88,226.22,103.75,222.74Z"/><path class="cls-2" d="M97.6,221.76a2.29,2.29,0,0,1,2.85,1.6c.69,2.39,1.46,4.67,2.29,7a2.41,2.41,0,0,1-3.08-1.52C98.91,226.48,98.22,224.11,97.6,221.76Z"/><path class="cls-2" d="M91.53,220.42h0a2.27,2.27,0,0,1,2.75,1.74c.55,2.4,1.17,4.81,1.87,7.16h0a2.41,2.41,0,0,1-3-1.72Q92.26,224,91.53,220.42Z"/><path class="cls-2" d="M85.55,218.71a2.3,2.3,0,0,1,2.64,1.9c.42,2.4.89,4.86,1.44,7.27A2.46,2.46,0,0,1,86.76,226C86.29,223.52,85.87,221.16,85.55,218.71Z"/><path class="cls-2" d="M79.68,216.63a2.25,2.25,0,0,1,1.67.53,2.27,2.27,0,0,1,.85,1.55c.28,2.42.61,4.87,1,7.33A2.47,2.47,0,0,1,80.46,224c-.17-1.22-.32-2.43-.45-3.65S79.78,217.86,79.68,216.63Z"/><path class="cls-2" d="M74,214.23a2.31,2.31,0,0,1,2.38,2.24q.19,3.63.59,7.35a2.46,2.46,0,0,1-2.64-2.2C74.09,219.16,74,216.66,74,214.23Z"/><path class="cls-2" d="M68.36,211.49a2.29,2.29,0,0,1,2.25,2.37c0,2.48,0,4.88.16,7.37a2.42,2.42,0,0,1-2.51-2.35C68.23,216.39,68.27,213.93,68.36,211.49Z"/><path class="cls-2" d="M62.93,208.45a2.27,2.27,0,0,1,2.13,2.46c-.17,2.46-.28,4.94-.29,7.39a2.4,2.4,0,0,1-2.35-2.51Q62.59,212.07,62.93,208.45Z"/><path class="cls-2" d="M57.71,205.06a2.33,2.33,0,0,1,2,2.59c-.3,2.43-.56,4.9-.74,7.38h0a2.46,2.46,0,0,1-2.19-2.66C57,209.9,57.31,207.51,57.71,205.06Z"/><path class="cls-2" d="M52.7,201.38a2.33,2.33,0,0,1,1.8,2.72c-.43,2.39-.82,4.83-1.15,7.3a2.47,2.47,0,0,1-2-2.77C51.69,206.22,52.17,203.77,52.7,201.38Z"/><path class="cls-2" d="M47.9,197.41a2.29,2.29,0,0,1,1.63,2.84q-.86,3.54-1.56,7.2a2.45,2.45,0,0,1-1.89-2.86Q46.91,200.93,47.9,197.41Z"/><path class="cls-2" d="M43.34,193.18a2.28,2.28,0,0,1,1.48,2.91c-.75,2.36-1.39,4.71-2,7.11a2.39,2.39,0,0,1-1.71-3Q42.16,196.64,43.34,193.18Z"/><path class="cls-2" d="M39,188.69a2.29,2.29,0,0,1,1.32,3c-.85,2.28-1.7,4.66-2.42,7a2.45,2.45,0,0,1-1.52-3.1C37.24,193.23,38.09,191,39,188.69Z"/><path class="cls-2" d="M35,183.94A2.35,2.35,0,0,1,36.14,187q-1.48,3.36-2.83,6.85A2.48,2.48,0,0,1,32,190.67c.47-1.14,1-2.26,1.45-3.38S34.47,185.05,35,183.94Z"/><path class="cls-2" d="M31.26,179a2.32,2.32,0,0,1,.93,3.14q-1.65,3.24-3.19,6.65h0a2.47,2.47,0,0,1-1.17-3.23C28.9,183.32,30.08,181.1,31.26,179Z"/><path class="cls-2" d="M27.8,173.8a2.29,2.29,0,0,1,.76,3.18c-1.27,2.13-2.42,4.24-3.57,6.45a2.42,2.42,0,0,1-1-3.29Q25.85,176.89,27.8,173.8Z"/><path class="cls-2" d="M24.65,168.44h0a2.26,2.26,0,0,1,.59,3.2c-1.38,2-2.72,4.13-4,6.24a2.41,2.41,0,0,1-.77-3.36Q22.52,171.4,24.65,168.44Z"/><path class="cls-2" d="M21.84,162.89a2.32,2.32,0,0,1,.4,3.23c-1.48,1.95-2.95,4-4.35,6a2.48,2.48,0,0,1-.55-3.41C18.81,166.72,20.25,164.8,21.84,162.89Z"/><path class="cls-2" d="M19.36,157.18a2.26,2.26,0,0,1,.75,1.58,2.36,2.36,0,0,1-.56,1.68c-1.59,1.85-3.14,3.76-4.67,5.74a2.48,2.48,0,0,1-.37-3.43C16.05,160.85,17.69,159,19.36,157.18Z"/><path class="cls-2" d="M17.21,151.35a2.29,2.29,0,0,1,0,3.27q-2.52,2.63-5,5.43a2.46,2.46,0,0,1-.2-3.43C13.71,154.81,15.46,153,17.21,151.35Z"/><path class="cls-2" d="M15.41,145.39a2.29,2.29,0,0,1-.2,3.26c-1.84,1.67-3.55,3.36-5.3,5.14a2.42,2.42,0,0,1,0-3.44Q12.65,147.77,15.41,145.39Z"/><path class="cls-2" d="M14,139.35a2.26,2.26,0,0,1-.36,3.23c-1.91,1.55-3.81,3.16-5.61,4.82A2.42,2.42,0,0,1,8.22,144Q11.06,141.56,14,139.35Z"/><path class="cls-2" d="M12.87,133.22a2.3,2.3,0,0,1-.55,3.21c-2,1.43-4,2.93-5.91,4.48a2.46,2.46,0,0,1,.47-3.42C8.87,136,10.81,134.59,12.87,133.22Z"/><path class="cls-2" d="M12.16,127a2.34,2.34,0,0,1-.75,3.17c-2.06,1.31-4.11,2.68-6.15,4.13A2.48,2.48,0,0,1,5.91,131c1-.68,2.05-1.35,3.08-2S11.11,127.66,12.16,127Z"/><path class="cls-2" d="M11.81,120.82h0a2.34,2.34,0,0,1-1,3.13c-2.12,1.18-4.24,2.44-6.35,3.76a2.47,2.47,0,0,1,.82-3.34C7.41,123.12,9.65,121.94,11.81,120.82Z"/><path class="cls-2" d="M11.81,114.6h0a2.3,2.3,0,0,1-1.15,3.06c-2.19,1.06-4.36,2.19-6.54,3.38h0a2.45,2.45,0,0,1,1-3.28C7.34,116.64,9.58,115.59,11.81,114.6Z"/><path class="cls-2" d="M12.16,108.38a2.29,2.29,0,0,1-1.3,3c-2.31.93-4.49,1.93-6.74,3a2.42,2.42,0,0,1,1.19-3.23C7.6,110.17,9.89,109.24,12.16,108.38Z"/><path class="cls-2" d="M12.87,102.2a2.28,2.28,0,0,1-1.45,2.92c-1.16.4-2.33.81-3.5,1.24s-2.28.89-3.42,1.35a2.4,2.4,0,0,1,1.4-3.14C8.23,103.72,10.56,102.93,12.87,102.2Z"/><path class="cls-2" d="M14,96.07a2.28,2.28,0,0,1-1.61,2.83c-2.35.66-4.77,1.38-7.08,2.18a2.44,2.44,0,0,1,1.6-3C9.24,97.31,11.57,96.66,14,96.07Z"/><path class="cls-2" d="M15.41,90a2.34,2.34,0,0,1-1.8,2.72q-3.57.78-7.2,1.76a2.49,2.49,0,0,1,1.79-3C10.59,91,13,90.46,15.41,90Z"/><path class="cls-2" d="M17.21,84.07a2.34,2.34,0,0,1-2,2.61Q11.64,87.25,8,88a2.46,2.46,0,0,1,1.93-2.85C12.3,84.72,14.79,84.38,17.21,84.07Z"/><path class="cls-2" d="M19.36,78.24a2.29,2.29,0,0,1-2.14,2.47c-2.43.24-4.85.55-7.31.92A2.46,2.46,0,0,1,12,78.89C14.47,78.61,16.92,78.39,19.36,78.24Z"/><path class="cls-2" d="M21.84,72.53a2.28,2.28,0,0,1-2.25,2.36c-2.48.08-4.91.25-7.37.48a2.5,2.5,0,0,1,.58-1.79,2.38,2.38,0,0,1,1.66-.82C17,72.62,19.41,72.55,21.84,72.53Z"/><path class="cls-2" d="M24.65,67a2.28,2.28,0,0,1-2.37,2.23c-2.44,0-5-.06-7.4,0h0a2.42,2.42,0,0,1,2.41-2.45C19.78,66.79,22.21,66.85,24.65,67Z"/><path class="cls-2" d="M27.8,61.62h0a2.34,2.34,0,0,1-2.51,2.08c-2.43-.2-4.9-.33-7.4-.41h0A2.49,2.49,0,0,1,20.46,61C22.91,61.12,25.35,61.32,27.8,61.62Z"/><path class="cls-2" d="M31.26,56.45h0a2.33,2.33,0,0,1-2.65,1.91q-3.62-.49-7.33-.82h0A2.47,2.47,0,0,1,24,55.37C26.37,55.64,28.86,56,31.26,56.45Z"/><path class="cls-2" d="M35,51.48h0a2.29,2.29,0,0,1-2.76,1.76c-2.41-.5-4.8-.89-7.26-1.25h0a2.43,2.43,0,0,1,2.78-2Q31.45,50.65,35,51.48Z"/><path class="cls-2" d="M39,46.73h0a2.28,2.28,0,0,1-2.83,1.62c-1.19-.32-2.39-.62-3.6-.91s-2.39-.53-3.6-.78a2.41,2.41,0,0,1,2.91-1.83Q35.54,45.7,39,46.73Z"/><path class="cls-2" d="M43.34,42.24h0a2.32,2.32,0,0,1-2.92,1.44c-2.32-.75-4.72-1.47-7.11-2.11h0a2.47,2.47,0,0,1,3-1.65C38.72,40.65,41,41.37,43.34,42.24Z"/><path class="cls-2" d="M47.9,38h0a2.35,2.35,0,0,1-3,1.26c-2.27-.89-4.59-1.72-7-2.52A2.48,2.48,0,0,1,41,35.27C43.34,36.1,45.65,37,47.9,38Z"/><path class="cls-2" d="M52.7,34h0a2.29,2.29,0,0,1-3.09,1.07q-3.31-1.52-6.78-2.89h0A2.46,2.46,0,0,1,46,30.9C48.28,31.9,50.52,33,52.7,34Z"/><path class="cls-2" d="M57.71,30.36h0a2.28,2.28,0,0,1-3.13.91C52.4,30.08,50.22,29,48,28a2.41,2.41,0,0,1,3.25-1.12Q54.55,28.55,57.71,30.36Z"/><path class="cls-2" d="M62.93,27a2.26,2.26,0,0,1-3.16.74c-2.09-1.27-4.26-2.55-6.42-3.69h0a2.42,2.42,0,0,1,3.32-.91C58.82,24.36,60.89,25.64,62.93,27Z"/><path class="cls-2" d="M68.36,23.93h0a2.34,2.34,0,0,1-3.22.53c-2-1.39-4.07-2.75-6.19-4.07h0a2.5,2.5,0,0,1,3.38-.71C64.38,21,66.38,22.44,68.36,23.93Z"/><path class="cls-2" d="M74,21.19h0a2.33,2.33,0,0,1-3.25.33c-1.92-1.5-3.9-3-5.93-4.4h0a2.46,2.46,0,0,1,3.4-.53C70.13,18,72.08,19.63,74,21.19Z"/><path class="cls-2" d="M79.68,18.79h0a2.29,2.29,0,0,1-3.26.13c-1.84-1.64-3.71-3.18-5.65-4.73h0a2.42,2.42,0,0,1,3.41-.35Q77,16.27,79.68,18.79Z"/><path class="cls-2" d="M85.55,16.71h0a2.27,2.27,0,0,1-3.26,0c-.87-.87-1.76-1.74-2.65-2.59s-1.8-1.66-2.72-2.49h0a2.51,2.51,0,0,1,1.71-.79,2.41,2.41,0,0,1,1.73.67C82.15,13.2,83.88,15,85.55,16.71Z"/><path class="cls-2" d="M91.53,15h0a2.29,2.29,0,0,1-3.25-.21C86.66,13,85,11.11,83.21,9.38h0a2.44,2.44,0,0,1,3.45.1C88.35,11.3,90,13.12,91.53,15Z"/><path class="cls-2" d="M97.6,13.66h0a2.34,2.34,0,0,1-3.23-.42q-2.27-2.88-4.74-5.7h0a2.48,2.48,0,0,1,3.44.31C94.64,9.75,96.14,11.66,97.6,13.66Z"/><path class="cls-2" d="M103.75,12.68h0a2.35,2.35,0,0,1-3.21-.64q-2.1-3-4.39-5.94h0a2.47,2.47,0,0,1,3.41.49C101,8.54,102.41,10.63,103.75,12.68Z"/><path class="cls-2" d="M109.94,12.05h0a2.31,2.31,0,0,1-3.17-.84c-1.28-2.06-2.62-4.12-4-6.16h0a2.45,2.45,0,0,1,3.37.65C107.45,7.8,108.73,9.93,109.94,12.05Z"/><path class="cls-2" d="M116.15,11.77a2.28,2.28,0,0,1-3.11-1c-1.16-2.2-2.37-4.27-3.66-6.4h0a2.41,2.41,0,0,1,3.32.87Q114.53,8.5,116.15,11.77Z"/><path class="cls-2" d="M122.38,11.85h0a2.27,2.27,0,0,1-3-1.15c-.52-1.12-1-2.24-1.6-3.35S116.62,5.17,116,4.08h0a2.39,2.39,0,0,1,3.27,1.07C120.4,7.38,121.42,9.62,122.38,11.85Z"/><path class="cls-2" d="M128.59,12.28a2.26,2.26,0,0,1-3-1.3c-.9-2.27-1.86-4.61-2.9-6.82h0a2.43,2.43,0,0,1,3.2,1.28C126.87,7.73,127.76,10,128.59,12.28Z"/><path class="cls-2" d="M134.75,13.11h0a2.32,2.32,0,0,1-2.89-1.49q-1.14-3.49-2.49-7h0a2.49,2.49,0,0,1,3.12,1.48C133.31,8.45,134.07,10.72,134.75,13.11Z"/><path class="cls-2" d="M140.86,14.3a2.19,2.19,0,0,1-1.72-.28,2.27,2.27,0,0,1-1.07-1.41c-.63-2.35-1.33-4.72-2.09-7.09a2.48,2.48,0,0,1,3,1.63C139.71,9.49,140.32,11.9,140.86,14.3Z"/><path class="cls-2" d="M146.89,15.83A2.32,2.32,0,0,1,144.2,14c-.49-2.38-1-4.78-1.66-7.18a2.45,2.45,0,0,1,2.93,1.78C146,11,146.48,13.43,146.89,15.83Z"/><path class="cls-2" d="M152.82,17.71a2.3,2.3,0,0,1-2.58-2c-.33-2.46-.76-4.82-1.24-7.27h0a2.42,2.42,0,0,1,2.83,2Q152.42,14.08,152.82,17.71Z"/><path class="cls-2" d="M158.63,19.93a2.26,2.26,0,0,1-2.46-2.13c-.2-2.46-.46-4.92-.8-7.35h0a2.42,2.42,0,0,1,2.7,2.14C158.32,15.06,158.5,17.51,158.63,19.93Z"/><path class="cls-2" d="M164.29,22.51A2.31,2.31,0,0,1,162,20.24c-.06-2.44-.16-4.94-.35-7.41h0a2.46,2.46,0,0,1,2.55,2.32C164.26,17.63,164.34,20,164.29,22.51Z"/><path class="cls-2" d="M169.79,25.42a2.2,2.2,0,0,1-1.57-.77,2.25,2.25,0,0,1-.61-1.65q.12-3.66.07-7.4a2.46,2.46,0,0,1,2.42,2.45C170.08,20.49,170,23,169.79,25.42Z"/><path class="cls-2" d="M175.11,28.64a2.3,2.3,0,0,1-2-2.56c.23-2.42.39-4.87.5-7.36a2.47,2.47,0,0,1,2.29,2.56C175.68,23.75,175.42,26.23,175.11,28.64Z"/><path class="cls-2" d="M180.24,32.16a2.27,2.27,0,0,1-1.88-2.66c.39-2.45.67-4.85.93-7.32h0a2.41,2.41,0,0,1,2.13,2.7Q180.91,28.57,180.24,32.16Z"/><path class="cls-2" d="M185.17,36a2.26,2.26,0,0,1-1.75-2.74c.51-2.4,1-4.86,1.37-7.28a2.44,2.44,0,0,1,2,2.84C186.27,31.22,185.75,33.61,185.17,36Z"/><path class="cls-2" d="M189.83,40.09h0a2.34,2.34,0,0,1-1.57-2.86c.65-2.35,1.26-4.75,1.81-7.19a2.48,2.48,0,0,1,1.77,3C191.24,35.39,190.59,37.73,189.83,40.09Z"/><path class="cls-2" d="M194.26,44.46a2.34,2.34,0,0,1-1.39-3c.78-2.3,1.52-4.65,2.2-7a2.47,2.47,0,0,1,1.63,3C196,39.81,195.11,42.18,194.26,44.46Z"/><path class="cls-2" d="M198.43,49.08a2.3,2.3,0,0,1-1.21-3c.94-2.27,1.78-4.55,2.6-6.9a2.44,2.44,0,0,1,1.46,3.11C200.37,44.58,199.42,46.85,198.43,49.08Z"/><path class="cls-2" d="M202.34,53.92h0a2.27,2.27,0,0,1-1.06-3.08c.53-1.11,1.06-2.23,1.57-3.36s1-2.25,1.44-3.39h0a2.47,2.47,0,0,1,1.31,1.35,2.42,2.42,0,0,1,0,1.85Q204,50.7,202.34,53.92Z"/><path class="cls-2" d="M205.94,59a2.31,2.31,0,0,1-.88-3.14c1.18-2.13,2.35-4.35,3.42-6.57a2.45,2.45,0,0,1,1.05,3.28C208.37,54.77,207.21,56.88,205.94,59Z"/><path class="cls-2" d="M209.22,64.28h0a2.19,2.19,0,0,1-1-1.45,2.31,2.31,0,0,1,.3-1.74q1.95-3.11,3.79-6.36h0a2.47,2.47,0,0,1,.86,3.34C212,60.17,210.61,62.25,209.22,64.28Z"/><path class="cls-2" d="M212.2,69.74a2.3,2.3,0,0,1-.46-3.23c1.41-2,2.78-4,4.13-6.11h0a2.46,2.46,0,0,1,.69,3.36C215.16,65.8,213.68,67.81,212.2,69.74Z"/><path class="cls-2" d="M214.87,75.37a2.28,2.28,0,0,1-.29-3.26c1.58-1.92,3-3.84,4.48-5.86a2.42,2.42,0,0,1,.49,3.41C218,71.62,216.45,73.52,214.87,75.37Z"/><path class="cls-2" d="M217.2,81.13a2.27,2.27,0,0,1-.12-3.25c1.66-1.81,3.3-3.69,4.84-5.59a2.41,2.41,0,0,1,.27,3.43Q219.73,78.53,217.2,81.13Z"/><path class="cls-2" d="M219.16,87a2.31,2.31,0,0,1,.08-3.25c1.75-1.71,3.49-3.48,5.19-5.31h0a2.49,2.49,0,0,1,0,3.46C222.72,83.69,221,85.38,219.16,87Z"/><path class="cls-2" d="M220.77,93h0a2.15,2.15,0,0,1-.5-1.67,2.3,2.3,0,0,1,.79-1.58c1.84-1.59,3.67-3.26,5.47-5a2.47,2.47,0,0,1-.14,3.44C224.59,89.9,222.69,91.5,220.77,93Z"/><path class="cls-2" d="M222,99.13a2.31,2.31,0,0,1,.51-3.23q2.88-2.22,5.72-4.64a2.46,2.46,0,0,1-.32,3.42C226,96.22,224,97.71,222,99.13Z"/><path class="cls-2" d="M222.94,105.29a2.29,2.29,0,0,1,.68-3.2c2.06-1.37,4-2.8,6-4.3a2.42,2.42,0,0,1-.52,3.4Q226,103.34,222.94,105.29Z"/><path class="cls-2" d="M223.49,111.49h0a2.28,2.28,0,0,1,.84-3.15c1.06-.63,2.12-1.27,3.17-1.93s2.06-1.33,3.08-2a2.48,2.48,0,0,1,.35,1.84,2.45,2.45,0,0,1-1.08,1.52Q226.67,109.73,223.49,111.49Z"/><path class="cls-2" d="M223.69,117.71a2.26,2.26,0,0,1,1-3.1c2.16-1.12,4.39-2.32,6.49-3.57a2.46,2.46,0,0,1-1,3.32Q227,116.13,223.69,117.71Z"/><path class="cls-3" d="M33.34,106.79v-.91a14.56,14.56,0,0,0-.68-5.09c-.59-1.47-1.4-1.47-1.67-1.47s-1.35,0-1.89,2.06c-.41,1.57-.62,5.86-.62,12.76a62.89,62.89,0,0,0,.6,10.93c.35,1.58.92,2.39,1.72,2.39.52,0,1.28-.17,1.78-1.64a22.73,22.73,0,0,0,.65-6.52v-.84H30.46v-7.23h7.6v22.26H34.4l-.14-2.07a6,6,0,0,1-1,1.62,4.19,4.19,0,0,1-3.3,1.39c-2.48,0-4.23-1.68-5.21-5-.92-3.12-1.39-8.88-1.39-17.13,0-3.84.11-7,.33-9.29a22.79,22.79,0,0,1,1.05-5.51,8.14,8.14,0,0,1,2.36-3.66,5.79,5.79,0,0,1,3.73-1.22,5.91,5.91,0,0,1,5.52,3.22c1.12,2,1.69,5.22,1.69,9.45v1.49Z"/><path class="cls-3" d="M59.1,132.75a7.17,7.17,0,0,1-.73-2.14,22.24,22.24,0,0,1-.29-3.45L58,122v-.52c-.08-4.45-.88-7.29-2.44-8.64a4.78,4.78,0,0,0,1.7-2.49,19.16,19.16,0,0,0,.79-6.15c0-3.73-.49-6.37-1.49-8.06a5.5,5.5,0,0,0-5.09-2.64H43.8v40h4.85V116.38h.86c1.43,0,2.37.35,2.8,1a9.31,9.31,0,0,1,.71,4.4l.06,5.11c0,1.62.05,2.9.11,3.79a22.27,22.27,0,0,0,.26,2.37l.07.41h6ZM48.65,100h1.46a2.42,2.42,0,0,1,2.25.94,7.69,7.69,0,0,1,.66,3.8,10.26,10.26,0,0,1-.61,4.3,2,2,0,0,1-2,1H48.65Z"/><rect class="cls-3" x="63.46" y="93.51" width="4.98" height="39.98"/><polygon class="cls-3" points="86.5 125.86 86.5 133.49 74.32 133.49 74.32 93.51 79.31 93.51 79.31 125.86 86.5 125.86"/><polygon class="cls-3" points="103.62 125.86 103.62 133.49 91.44 133.49 91.44 93.51 96.42 93.51 96.42 125.86 103.62 125.86"/><polygon class="cls-3" points="133.28 93.51 133.28 133.49 128.32 133.49 128.32 115.83 123.86 115.83 123.86 133.49 118.91 133.49 118.91 93.51 123.86 93.51 123.86 108.8 128.32 108.8 128.32 93.51 133.28 93.51"/><path class="cls-3" d="M153.29,103.59a24.71,24.71,0,0,0-1-5.75,9.4,9.4,0,0,0-2.38-4,6.15,6.15,0,0,0-7.46,0,9.41,9.41,0,0,0-2.35,4,23.41,23.41,0,0,0-1,5.71c-.21,2.48-.32,5.83-.32,10s.11,7.48.32,10a23.79,23.79,0,0,0,1,5.7,9.63,9.63,0,0,0,2.36,4,6.15,6.15,0,0,0,7.46,0,9.51,9.51,0,0,0,2.38-4,25.91,25.91,0,0,0,1-5.75c.21-2.49.32-5.82.32-9.91S153.5,106.06,153.29,103.59Zm-7.1,24c-.31,0-1.27,0-1.79-2.11-.4-1.62-.6-5.66-.6-12s.2-10.47.59-12.08c.52-2.1,1.46-2.1,1.77-2.1s1.26,0,1.78,2.1c.39,1.61.59,5.68.59,12.08s-.2,10.46-.59,12C147.44,127.61,146.5,127.61,146.19,127.61Z"/><path class="cls-3" d="M173.47,93.51v27.41a49.43,49.43,0,0,1-.25,5.8,13.14,13.14,0,0,1-.85,3.3,7.57,7.57,0,0,1-2.44,3.29,6.13,6.13,0,0,1-3.66,1.12,5.83,5.83,0,0,1-5.61-3.17c-1.06-2-1.57-5.4-1.57-10.34V93.51h5v26.78a20,20,0,0,0,.57,5.93,1.68,1.68,0,0,0,1.68,1.29,1.67,1.67,0,0,0,1.65-1.29,21.1,21.1,0,0,0,.56-6V93.51Z"/><path class="cls-3" d="M192.66,122.84c0,3.62-.58,6.46-1.73,8.45a5.71,5.71,0,0,1-5.2,3.14,5.59,5.59,0,0,1-5.24-3.31c-1.08-2.08-1.63-5.28-1.63-9.49,0-.44,0-1.18.06-2.2v-.63h5v3a16,16,0,0,0,.46,4.72c.33.87.83,1,1.24,1a1.59,1.59,0,0,0,1.48-.91,6.68,6.68,0,0,0,.6-3.2,8.42,8.42,0,0,0-.43-2.83,13.08,13.08,0,0,0-1.91-3.09l-2-2.63a20,20,0,0,1-3.44-5.67,18.4,18.4,0,0,1-.74-5.62,16,16,0,0,1,1.67-8,5.37,5.37,0,0,1,4.83-3,5.45,5.45,0,0,1,5,3.22c1.09,2,1.64,5,1.64,8.74,0,.38,0,.67,0,.87s0,.4,0,.55l0,.47h-4.74V104.9a12.53,12.53,0,0,0-.53-4.34,1.47,1.47,0,0,0-1.42-1.06c-.28,0-.7.08-1.06.76a5.61,5.61,0,0,0-.49,2.61c0,1.51.79,3.24,2.34,5.13l2.24,2.76a17.77,17.77,0,0,1,3.27,5.51A21.66,21.66,0,0,1,192.66,122.84Z"/><polygon class="cls-3" points="210.29 125.91 210.29 133.49 198.14 133.49 198.14 93.51 210.13 93.51 210.13 100.99 203.1 100.99 203.1 109 209.64 109 209.64 116.18 203.1 116.18 203.1 125.91 210.29 125.91"/><text class="cls-4" transform="translate(34.91 160.59)"><tspan class="cls-5">P</tspan><tspan x="11.16" y="0">IZZA &amp; G</tspan><tspan class="cls-6" x="114.87" y="0">R</tspan><tspan class="cls-7" x="126.23" y="0">I</tspan><tspan class="cls-8" x="130.83" y="0">L</tspan><tspan x="147.6" y="0">L</tspan></text><path class="cls-9" d="M130.1,57.55c-3-8.33-8.3-12.36-17.19-15.68a20.7,20.7,0,0,0-5.06-1A12.09,12.09,0,0,1,111,44.27c2.24,3.9,1.45,6.95-3.78,11-10.22,7.86-5.17,28.63,14.1,25.58.41-.06-11.14-.83-13.25-7.3-3.35-10.29,6.14-13.69,8.13-21.62,8.1,6.1,6.77,13.48.94,17.72,10.77-.85,8.67-11.88,7.25-13.76C130.9,67.29,122.94,76,109,73.26,112.88,84.1,137.43,77.83,130.1,57.55Z"/><text class="cls-10" transform="matrix(0.77, 0.63, -0.63, 0.77, 51.6, 190.45)">H</text><text class="cls-10" transform="matrix(0.87, 0.49, -0.49, 0.87, 65.42, 200.93)">A</text><text class="cls-10" transform="matrix(0.94, 0.33, -0.33, 0.94, 79.98, 208.51)">N</text><text class="cls-10" transform="matrix(0.99, 0.16, -0.16, 0.99, 96.91, 213.81)">D</text><text class="cls-10" transform="matrix(1, -0.02, 0.02, 1, 114.47, 215.93)">S</text><text class="cls-10" transform="translate(131.16 215.07) rotate(-10.54)">A</text><text class="cls-10" transform="translate(146.93 211.58) rotate(-20.22)">C</text><text class="cls-10" transform="matrix(0.86, -0.5, 0.5, 0.86, 162.68, 205.13)">R</text><text class="cls-10" transform="translate(177.01 196.06) rotate(-39.7)">E</text></g></g></svg>